<svg width="433" height="100" viewBox="0 0 433 100" fill="none" xmlns="http://www.w3.org/2000/svg">
<path d="M30.2148 21.082C30.2148 23.1654 29.9414 24.9036 29.3945 26.2969C28.8477 27.6901 28.0339 28.8099 26.9531 29.6562C25.8724 30.5026 24.5247 31.1081 22.9102 31.4727C21.3086 31.8242 19.4466 32 17.3242 32H3.88672C3.69141 32 3.54167 32 3.4375 32C3.34635 31.987 3.27474 31.9609 3.22266 31.9219C3.17057 31.8698 3.13802 31.7982 3.125 31.707C3.125 31.6159 3.125 31.4857 3.125 31.3164V10.9648C3.125 10.7695 3.125 10.6263 3.125 10.5352C3.13802 10.431 3.17057 10.3594 3.22266 10.3203C3.27474 10.2812 3.35286 10.2617 3.45703 10.2617C3.57422 10.2487 3.73047 10.2422 3.92578 10.2422H17.3242C19.4466 10.2422 21.3086 10.4245 22.9102 10.7891C24.5247 11.1536 25.8724 11.7656 26.9531 12.625C28.0339 13.4714 28.8477 14.5846 29.3945 15.9648C29.9414 17.3451 30.2148 19.0508 30.2148 21.082ZM28.5547 21.082C28.5547 19.4023 28.3659 17.9635 27.9883 16.7656C27.6107 15.5547 26.9857 14.5651 26.1133 13.7969C25.2409 13.0156 24.0885 12.4427 22.6562 12.0781C21.224 11.7135 19.4466 11.5312 17.3242 11.5312H4.78516V30.7109H17.3242C19.4466 30.7109 21.224 30.5286 22.6562 30.1641C24.0885 29.7995 25.2409 29.2331 26.1133 28.4648C26.9857 27.6836 27.6107 26.6875 27.9883 25.4766C28.3659 24.2526 28.5547 22.7878 28.5547 21.082ZM54.9023 17C54.9023 17.7943 54.7852 18.4909 54.5508 19.0898C54.3164 19.6888 53.9974 20.2096 53.5938 20.6523C53.2031 21.0951 52.7344 21.4661 52.1875 21.7656C51.6536 22.0651 51.0807 22.3125 50.4688 22.5078C49.8568 22.6901 49.2188 22.8268 48.5547 22.918C47.9036 23.0091 47.2656 23.0677 46.6406 23.0938L53.8281 30.6523C53.9453 30.7695 54.0234 30.8932 54.0625 31.0234C54.1146 31.1406 54.1471 31.2513 54.1602 31.3555C54.1602 31.5378 54.0951 31.694 53.9648 31.8242C53.8477 31.9414 53.6914 32 53.4961 32C53.3529 32 53.1966 31.9674 53.0273 31.9023C52.8711 31.8372 52.7148 31.7135 52.5586 31.5312L44.7266 23.1719H37.4219V30.5156C37.4219 30.7109 37.4089 30.8997 37.3828 31.082C37.3698 31.2513 37.3372 31.4076 37.2852 31.5508C37.2331 31.681 37.1549 31.7917 37.0508 31.8828C36.9596 31.9609 36.8359 32 36.6797 32C36.3021 32 36.0547 31.8568 35.9375 31.5703C35.8203 31.2708 35.7617 30.9193 35.7617 30.5156V10.9648C35.7617 10.7695 35.7617 10.6263 35.7617 10.5352C35.7747 10.431 35.8008 10.3594 35.8398 10.3203C35.8789 10.2812 35.944 10.2617 36.0352 10.2617C36.1393 10.2487 36.2891 10.2422 36.4844 10.2422H42.1484C43.3594 10.2422 44.5117 10.2552 45.6055 10.2812C46.7122 10.3073 47.7344 10.3919 48.6719 10.5352C49.6224 10.6654 50.4818 10.8737 51.25 11.1602C52.0182 11.4336 52.6693 11.8242 53.2031 12.332C53.75 12.8268 54.1667 13.4518 54.4531 14.207C54.7526 14.9622 54.9023 15.8932 54.9023 17ZM53.2422 17C53.2422 15.7109 53.0013 14.7018 52.5195 13.9727C52.0508 13.2305 51.3477 12.6836 50.4102 12.332C49.4727 11.9674 48.3138 11.7461 46.9336 11.668C45.5534 11.5768 43.9583 11.5312 42.1484 11.5312H37.4219V21.8828H44.7461C45.8789 21.8828 46.9596 21.8307 47.9883 21.7266C49.0169 21.6224 49.9154 21.401 50.6836 21.0625C51.4648 20.7109 52.0833 20.2161 52.5391 19.5781C53.0078 18.9401 53.2422 18.0807 53.2422 17ZM80.332 31.3164C80.332 31.5117 80.2995 31.6549 80.2344 31.7461C80.1693 31.8372 80.0781 31.9023 79.9609 31.9414C79.8568 31.9805 79.7266 32 79.5703 32C79.4141 32 79.2383 32 79.043 32H60.8008C60.6706 32 60.5729 31.9935 60.5078 31.9805C60.4427 31.9674 60.3906 31.9349 60.3516 31.8828C60.3255 31.8307 60.306 31.7656 60.293 31.6875C60.293 31.5964 60.293 31.4727 60.293 31.3164V11.1602C60.293 10.9648 60.293 10.8086 60.293 10.6914C60.306 10.5742 60.332 10.4831 60.3711 10.418C60.4102 10.3529 60.4753 10.3073 60.5664 10.2812C60.6706 10.2552 60.8203 10.2422 61.0156 10.2422H78.8477C79.043 10.2422 79.2253 10.2422 79.3945 10.2422C79.5638 10.2422 79.7135 10.2617 79.8438 10.3008C79.987 10.3398 80.0977 10.4049 80.1758 10.4961C80.2539 10.5872 80.293 10.7305 80.293 10.9258C80.293 11.082 80.2539 11.2057 80.1758 11.2969C80.0977 11.375 79.987 11.4336 79.8438 11.4727C79.7135 11.5117 79.5638 11.5312 79.3945 11.5312C79.2253 11.5312 79.043 11.5312 78.8477 11.5312H61.9531V20.0859H78.75C79.0365 20.0859 79.2773 20.125 79.4727 20.2031C79.668 20.2812 79.7656 20.4505 79.7656 20.7109C79.7656 20.9974 79.681 21.1862 79.5117 21.2773C79.3555 21.3685 79.1471 21.4141 78.8867 21.4141H61.9531V30.7109H78.8867C79.082 30.7109 79.2643 30.7109 79.4336 30.7109C79.6029 30.7109 79.7526 30.7305 79.8828 30.7695C80.026 30.8086 80.1367 30.8737 80.2148 30.9648C80.293 31.043 80.332 31.1602 80.332 31.3164ZM94.7266 11.2383C94.9349 10.8607 95.0977 10.6003 95.2148 10.457C95.332 10.3138 95.5078 10.2422 95.7422 10.2422C95.9245 10.2422 96.0807 10.3138 96.2109 10.457C96.3542 10.5872 96.5365 10.8477 96.7578 11.2383L107.539 30.6914C107.682 30.9518 107.754 31.2057 107.754 31.4531C107.754 31.6875 107.689 31.8698 107.559 32C107.428 32.1302 107.272 32.1953 107.09 32.1953C106.908 32.1953 106.725 32.1302 106.543 32C106.374 31.8828 106.198 31.6615 106.016 31.3359L102.695 25.3203H88.7891L85.4297 31.4141C85.2865 31.6875 85.1172 31.8828 84.9219 32C84.7396 32.1302 84.5573 32.1953 84.375 32.1953C84.1536 32.1953 83.9909 32.1172 83.8867 31.9609C83.7826 31.8047 83.7305 31.5964 83.7305 31.3359C83.7305 31.2318 83.75 31.1276 83.7891 31.0234C83.8411 30.9193 83.8997 30.8021 83.9648 30.6719L94.7266 11.2383ZM102.129 24.168L95.7422 12.5078L89.3555 24.168H102.129ZM126.211 29.2852L138.32 11.082C138.516 10.7826 138.711 10.5677 138.906 10.4375C139.115 10.3073 139.316 10.2422 139.512 10.2422C139.759 10.2422 139.961 10.3464 140.117 10.5547C140.286 10.75 140.371 10.9974 140.371 11.2969V30.6328C140.371 31.0104 140.326 31.3359 140.234 31.6094C140.143 31.8698 139.909 32 139.531 32C139.206 32 138.984 31.8698 138.867 31.6094C138.763 31.3359 138.711 31.0104 138.711 30.6328V13.2891L127.168 30.3203C126.855 30.763 126.536 30.9844 126.211 30.9844C125.859 30.9844 125.54 30.763 125.254 30.3203L113.711 13.2891V30.6328C113.711 31.0104 113.652 31.3359 113.535 31.6094C113.431 31.8698 113.216 32 112.891 32C112.513 32 112.279 31.8698 112.188 31.6094C112.096 31.3359 112.051 31.0104 112.051 30.6328V11.2969C112.051 10.9974 112.129 10.75 112.285 10.5547C112.454 10.3464 112.663 10.2422 112.91 10.2422C113.092 10.2422 113.281 10.3073 113.477 10.4375C113.685 10.5677 113.893 10.7826 114.102 11.082L126.211 29.2852ZM123.789 64.6328C123.789 65.9609 123.535 67.0417 123.027 67.875C122.52 68.6953 121.816 69.3398 120.918 69.8086C120.033 70.2643 118.984 70.5768 117.773 70.7461C116.562 70.9154 115.26 71 113.867 71H102.617C102.396 71 102.227 70.9349 102.109 70.8047C102.005 70.6745 101.953 70.5117 101.953 70.3164V49.9648C101.953 49.7305 102.025 49.5547 102.168 49.4375C102.311 49.3073 102.493 49.2422 102.715 49.2422H111.66C112.598 49.2422 113.522 49.2552 114.434 49.2812C115.345 49.2943 116.204 49.3594 117.012 49.4766C117.832 49.5807 118.581 49.7435 119.258 49.9648C119.948 50.1862 120.54 50.4987 121.035 50.9023C121.543 51.306 121.934 51.8138 122.207 52.4258C122.493 53.0378 122.637 53.7865 122.637 54.6719C122.637 55.4271 122.533 56.0651 122.324 56.5859C122.116 57.1068 121.849 57.543 121.523 57.8945C121.211 58.2461 120.859 58.526 120.469 58.7344C120.078 58.9297 119.701 59.0794 119.336 59.1836C118.971 59.2747 118.639 59.3333 118.34 59.3594C118.04 59.3854 117.819 59.3984 117.676 59.3984H117.539C118.333 59.4766 119.102 59.6133 119.844 59.8086C120.586 60.0039 121.243 60.3034 121.816 60.707C122.402 61.0977 122.871 61.612 123.223 62.25C123.587 62.888 123.776 63.6823 123.789 64.6328ZM120.977 54.6719C120.977 54.0078 120.866 53.4219 120.645 52.9141C120.423 52.3932 120 51.957 119.375 51.6055C118.75 51.2539 117.878 50.987 116.758 50.8047C115.638 50.6224 114.18 50.5312 112.383 50.5312H103.613V58.9102H112.852C114.258 58.9102 115.469 58.8581 116.484 58.7539C117.513 58.6367 118.359 58.4219 119.023 58.1094C119.688 57.7969 120.176 57.3672 120.488 56.8203C120.814 56.2734 120.977 55.5573 120.977 54.6719ZM122.129 64.6328C122.129 63.7344 121.908 62.9857 121.465 62.3867C121.035 61.7878 120.417 61.3125 119.609 60.9609C118.815 60.6094 117.845 60.362 116.699 60.2188C115.553 60.0625 114.271 59.9844 112.852 59.9844H103.613V69.7109H114.609C116.367 69.7109 117.747 69.5677 118.75 69.2812C119.766 68.9948 120.521 68.6172 121.016 68.1484C121.51 67.6797 121.816 67.1393 121.934 66.5273C122.064 65.9154 122.129 65.2839 122.129 64.6328ZM157.422 60.1211C157.422 62.0221 157.135 63.6823 156.562 65.1016C156.003 66.5078 155.13 67.6797 153.945 68.6172C152.773 69.5547 151.283 70.2578 149.473 70.7266C147.676 71.1823 145.54 71.4102 143.066 71.4102C140.592 71.4102 138.451 71.1823 136.641 70.7266C134.844 70.2578 133.359 69.5547 132.188 68.6172C131.016 67.6797 130.143 66.5078 129.57 65.1016C129.01 63.6823 128.73 62.0221 128.73 60.1211C128.73 58.2201 129.01 56.5664 129.57 55.1602C130.143 53.7409 131.016 52.5625 132.188 51.625C133.359 50.6875 134.844 49.9909 136.641 49.5352C138.451 49.0664 140.592 48.832 143.066 48.832C145.54 48.832 147.676 49.0664 149.473 49.5352C151.283 49.9909 152.773 50.6875 153.945 51.625C155.13 52.5625 156.003 53.7409 156.562 55.1602C157.135 56.5664 157.422 58.2201 157.422 60.1211ZM130.391 60.1211C130.391 61.944 130.651 63.487 131.172 64.75C131.693 66.013 132.474 67.0482 133.516 67.8555C134.57 68.6497 135.892 69.2292 137.48 69.5938C139.069 69.9453 140.931 70.1211 143.066 70.1211C145.202 70.1211 147.064 69.9453 148.652 69.5938C150.241 69.2292 151.562 68.6497 152.617 67.8555C153.672 67.0482 154.46 66.013 154.98 64.75C155.501 63.487 155.762 61.944 155.762 60.1211C155.762 58.3112 155.501 56.7747 154.98 55.5117C154.46 54.2357 153.672 53.2005 152.617 52.4062C151.562 51.599 150.241 51.0195 148.652 50.668C147.064 50.3034 145.202 50.1211 143.066 50.1211C140.931 50.1211 139.069 50.3034 137.48 50.668C135.892 51.0195 134.57 51.599 133.516 52.4062C132.474 53.2005 131.693 54.2357 131.172 55.5117C130.651 56.7747 130.391 58.3112 130.391 60.1211ZM175.352 70.1211C177.474 70.1211 179.245 69.9193 180.664 69.5156C182.083 69.099 183.216 68.474 184.062 67.6406C184.922 66.8073 185.527 65.7656 185.879 64.5156C186.23 63.2526 186.406 61.7682 186.406 60.0625V50.6094C186.406 50.2708 186.458 49.9583 186.562 49.6719C186.667 49.3854 186.882 49.2422 187.207 49.2422C187.402 49.2422 187.552 49.2812 187.656 49.3594C187.773 49.4375 187.858 49.5417 187.91 49.6719C187.975 49.8021 188.014 49.9518 188.027 50.1211C188.053 50.2773 188.066 50.4401 188.066 50.6094V60.0625C188.066 62.0938 187.799 63.832 187.266 65.2773C186.745 66.7096 185.957 67.8815 184.902 68.793C183.848 69.7044 182.52 70.3685 180.918 70.7852C179.329 71.2018 177.474 71.4102 175.352 71.4102C173.216 71.4102 171.354 71.2018 169.766 70.7852C168.177 70.3685 166.849 69.7044 165.781 68.793C164.714 67.8815 163.913 66.7096 163.379 65.2773C162.858 63.832 162.598 62.0938 162.598 60.0625V50.6094C162.598 50.4401 162.604 50.2773 162.617 50.1211C162.643 49.9518 162.689 49.8021 162.754 49.6719C162.819 49.5417 162.904 49.4375 163.008 49.3594C163.125 49.2812 163.281 49.2422 163.477 49.2422C163.802 49.2422 164.01 49.3854 164.102 49.6719C164.206 49.9583 164.258 50.2708 164.258 50.6094V60.0625C164.258 61.7682 164.434 63.2526 164.785 64.5156C165.15 65.7656 165.755 66.8073 166.602 67.6406C167.461 68.474 168.6 69.099 170.02 69.5156C171.439 69.9193 173.216 70.1211 175.352 70.1211ZM194.746 71C194.551 71 194.395 70.9935 194.277 70.9805C194.173 70.9674 194.095 70.9414 194.043 70.9023C193.991 70.8503 193.958 70.7786 193.945 70.6875C193.945 70.5833 193.945 70.4466 193.945 70.2773V50.5117C193.945 50.1732 194.004 49.8802 194.121 49.6328C194.238 49.3724 194.486 49.2422 194.863 49.2422C195.176 49.2422 195.378 49.3789 195.469 49.6523C195.56 49.9128 195.605 50.1992 195.605 50.5117V69.7109H212.383C212.643 69.7109 212.839 69.7826 212.969 69.9258C213.112 70.056 213.184 70.1992 213.184 70.3555C213.184 70.5247 213.112 70.6745 212.969 70.8047C212.839 70.9349 212.643 71 212.383 71H194.746ZM236.387 70.3164C236.387 70.5117 236.354 70.6549 236.289 70.7461C236.224 70.8372 236.133 70.9023 236.016 70.9414C235.911 70.9805 235.781 71 235.625 71C235.469 71 235.293 71 235.098 71H216.855C216.725 71 216.628 70.9935 216.562 70.9805C216.497 70.9674 216.445 70.9349 216.406 70.8828C216.38 70.8307 216.361 70.7656 216.348 70.6875C216.348 70.5964 216.348 70.4727 216.348 70.3164V50.1602C216.348 49.9648 216.348 49.8086 216.348 49.6914C216.361 49.5742 216.387 49.4831 216.426 49.418C216.465 49.3529 216.53 49.3073 216.621 49.2812C216.725 49.2552 216.875 49.2422 217.07 49.2422H234.902C235.098 49.2422 235.28 49.2422 235.449 49.2422C235.618 49.2422 235.768 49.2617 235.898 49.3008C236.042 49.3398 236.152 49.4049 236.23 49.4961C236.309 49.5872 236.348 49.7305 236.348 49.9258C236.348 50.082 236.309 50.2057 236.23 50.2969C236.152 50.375 236.042 50.4336 235.898 50.4727C235.768 50.5117 235.618 50.5312 235.449 50.5312C235.28 50.5312 235.098 50.5312 234.902 50.5312H218.008V59.0859H234.805C235.091 59.0859 235.332 59.125 235.527 59.2031C235.723 59.2812 235.82 59.4505 235.82 59.7109C235.82 59.9974 235.736 60.1862 235.566 60.2773C235.41 60.3685 235.202 60.4141 234.941 60.4141H218.008V69.7109H234.941C235.137 69.7109 235.319 69.7109 235.488 69.7109C235.658 69.7109 235.807 69.7305 235.938 69.7695C236.081 69.8086 236.191 69.8737 236.27 69.9648C236.348 70.043 236.387 70.1602 236.387 70.3164ZM252.578 69.2422L263.73 50.2188C263.874 49.9714 264.023 49.7565 264.18 49.5742C264.336 49.3919 264.505 49.2878 264.688 49.2617C264.935 49.2617 265.111 49.3398 265.215 49.4961C265.319 49.6523 265.371 49.8021 265.371 49.9453C265.371 50.0885 265.326 50.2448 265.234 50.4141C265.156 50.5703 265.065 50.7331 264.961 50.9023L253.574 70.3164C253.431 70.5508 253.268 70.7266 253.086 70.8438C252.917 70.9479 252.741 71 252.559 71C252.168 71 251.836 70.7721 251.562 70.3164L240.137 50.9023C240.033 50.7201 239.941 50.5508 239.863 50.3945C239.798 50.2253 239.766 50.0625 239.766 49.9062C239.766 49.8021 239.818 49.6719 239.922 49.5156C240.026 49.3464 240.189 49.2617 240.41 49.2617C240.632 49.2878 240.814 49.3919 240.957 49.5742C241.113 49.7565 241.263 49.9714 241.406 50.2188L252.578 69.2422ZM274.57 50.2383C274.779 49.8607 274.941 49.6003 275.059 49.457C275.176 49.3138 275.352 49.2422 275.586 49.2422C275.768 49.2422 275.924 49.3138 276.055 49.457C276.198 49.5872 276.38 49.8477 276.602 50.2383L287.383 69.6914C287.526 69.9518 287.598 70.2057 287.598 70.4531C287.598 70.6875 287.533 70.8698 287.402 71C287.272 71.1302 287.116 71.1953 286.934 71.1953C286.751 71.1953 286.569 71.1302 286.387 71C286.217 70.8828 286.042 70.6615 285.859 70.3359L282.539 64.3203H268.633L265.273 70.4141C265.13 70.6875 264.961 70.8828 264.766 71C264.583 71.1302 264.401 71.1953 264.219 71.1953C263.997 71.1953 263.835 71.1172 263.73 70.9609C263.626 70.8047 263.574 70.5964 263.574 70.3359C263.574 70.2318 263.594 70.1276 263.633 70.0234C263.685 69.9193 263.743 69.8021 263.809 69.6719L274.57 50.2383ZM281.973 63.168L275.586 51.5078L269.199 63.168H281.973ZM311.074 56C311.074 56.7943 310.957 57.4909 310.723 58.0898C310.488 58.6888 310.169 59.2096 309.766 59.6523C309.375 60.0951 308.906 60.4661 308.359 60.7656C307.826 61.0651 307.253 61.3125 306.641 61.5078C306.029 61.6901 305.391 61.8268 304.727 61.918C304.076 62.0091 303.438 62.0677 302.812 62.0938L310 69.6523C310.117 69.7695 310.195 69.8932 310.234 70.0234C310.286 70.1406 310.319 70.2513 310.332 70.3555C310.332 70.5378 310.267 70.694 310.137 70.8242C310.02 70.9414 309.863 71 309.668 71C309.525 71 309.368 70.9674 309.199 70.9023C309.043 70.8372 308.887 70.7135 308.73 70.5312L300.898 62.1719H293.594V69.5156C293.594 69.7109 293.581 69.8997 293.555 70.082C293.542 70.2513 293.509 70.4076 293.457 70.5508C293.405 70.681 293.327 70.7917 293.223 70.8828C293.132 70.9609 293.008 71 292.852 71C292.474 71 292.227 70.8568 292.109 70.5703C291.992 70.2708 291.934 69.9193 291.934 69.5156V49.9648C291.934 49.7695 291.934 49.6263 291.934 49.5352C291.947 49.431 291.973 49.3594 292.012 49.3203C292.051 49.2812 292.116 49.2617 292.207 49.2617C292.311 49.2487 292.461 49.2422 292.656 49.2422H298.32C299.531 49.2422 300.684 49.2552 301.777 49.2812C302.884 49.3073 303.906 49.3919 304.844 49.5352C305.794 49.6654 306.654 49.8737 307.422 50.1602C308.19 50.4336 308.841 50.8242 309.375 51.332C309.922 51.8268 310.339 52.4518 310.625 53.207C310.924 53.9622 311.074 54.8932 311.074 56ZM309.414 56C309.414 54.7109 309.173 53.7018 308.691 52.9727C308.223 52.2305 307.52 51.6836 306.582 51.332C305.645 50.9674 304.486 50.7461 303.105 50.668C301.725 50.5768 300.13 50.5312 298.32 50.5312H293.594V60.8828H300.918C302.051 60.8828 303.132 60.8307 304.16 60.7266C305.189 60.6224 306.087 60.401 306.855 60.0625C307.637 59.7109 308.255 59.2161 308.711 58.5781C309.18 57.9401 309.414 57.0807 309.414 56ZM343.535 60.082C343.535 62.1654 343.262 63.9036 342.715 65.2969C342.168 66.6901 341.354 67.8099 340.273 68.6562C339.193 69.5026 337.845 70.1081 336.23 70.4727C334.629 70.8242 332.767 71 330.645 71H317.207C317.012 71 316.862 71 316.758 71C316.667 70.987 316.595 70.9609 316.543 70.9219C316.491 70.8698 316.458 70.7982 316.445 70.707C316.445 70.6159 316.445 70.4857 316.445 70.3164V49.9648C316.445 49.7695 316.445 49.6263 316.445 49.5352C316.458 49.431 316.491 49.3594 316.543 49.3203C316.595 49.2812 316.673 49.2617 316.777 49.2617C316.895 49.2487 317.051 49.2422 317.246 49.2422H330.645C332.767 49.2422 334.629 49.4245 336.23 49.7891C337.845 50.1536 339.193 50.7656 340.273 51.625C341.354 52.4714 342.168 53.5846 342.715 54.9648C343.262 56.3451 343.535 58.0508 343.535 60.082ZM341.875 60.082C341.875 58.4023 341.686 56.9635 341.309 55.7656C340.931 54.5547 340.306 53.5651 339.434 52.7969C338.561 52.0156 337.409 51.4427 335.977 51.0781C334.544 50.7135 332.767 50.5312 330.645 50.5312H318.105V69.7109H330.645C332.767 69.7109 334.544 69.5286 335.977 69.1641C337.409 68.7995 338.561 68.2331 339.434 67.4648C340.306 66.6836 340.931 65.6875 341.309 64.4766C341.686 63.2526 341.875 61.7878 341.875 60.082Z" fill="white"/>
<path d="M182.755 94.874C182.755 95.1657 182.702 95.4255 182.598 95.6533C182.493 95.8766 182.347 96.0726 182.16 96.2412C181.973 96.4053 181.75 96.5465 181.49 96.665C181.235 96.779 180.957 96.8724 180.656 96.9453C180.355 97.0137 180.034 97.0615 179.692 97.0889C179.355 97.1208 179.013 97.1367 178.667 97.1367C178.179 97.1367 177.694 97.1117 177.211 97.0615C176.728 97.0114 176.277 96.9499 175.857 96.877C175.438 96.7995 175.067 96.7174 174.743 96.6309C174.424 96.5443 174.183 96.4622 174.019 96.3848C173.955 96.3529 173.907 96.3141 173.875 96.2686C173.848 96.2184 173.834 96.1683 173.834 96.1182C173.834 96.0635 173.848 96.0179 173.875 95.9814C173.907 95.9404 173.952 95.9199 174.012 95.9199C174.039 95.9199 174.071 95.9268 174.107 95.9404C174.285 96.0133 174.54 96.0931 174.873 96.1797C175.206 96.2663 175.582 96.3483 176.001 96.4258C176.425 96.4987 176.874 96.5602 177.348 96.6104C177.826 96.6605 178.3 96.6855 178.77 96.6855C179.225 96.6855 179.658 96.6559 180.068 96.5967C180.479 96.5374 180.839 96.4372 181.148 96.2959C181.463 96.1546 181.711 95.9678 181.894 95.7354C182.08 95.5029 182.174 95.2158 182.174 94.874C182.174 94.5869 182.094 94.3522 181.935 94.1699C181.78 93.9831 181.568 93.835 181.299 93.7256C181.03 93.6117 180.715 93.5273 180.355 93.4727C179.995 93.4134 179.613 93.3701 179.207 93.3428C178.806 93.3109 178.391 93.2881 177.963 93.2744C177.535 93.2562 177.118 93.2288 176.712 93.1924C176.311 93.1559 175.93 93.1035 175.57 93.0352C175.21 92.9668 174.896 92.8665 174.627 92.7344C174.358 92.6022 174.144 92.4313 173.984 92.2217C173.829 92.012 173.752 91.7477 173.752 91.4287C173.752 91.137 173.807 90.8796 173.916 90.6562C174.025 90.4329 174.176 90.2415 174.367 90.082C174.559 89.918 174.784 89.7835 175.044 89.6787C175.308 89.5693 175.593 89.4827 175.898 89.4189C176.208 89.3551 176.532 89.3096 176.869 89.2822C177.211 89.2549 177.553 89.2412 177.895 89.2412C178.318 89.2412 178.735 89.2617 179.146 89.3027C179.556 89.3392 179.941 89.3916 180.301 89.46C180.661 89.5238 180.984 89.5967 181.271 89.6787C181.559 89.7562 181.789 89.8359 181.962 89.918C181.998 89.9362 182.026 89.9635 182.044 90C182.062 90.0319 182.071 90.0661 182.071 90.1025C182.071 90.1663 182.049 90.2256 182.003 90.2803C181.962 90.335 181.903 90.3623 181.825 90.3623C181.78 90.3623 181.741 90.3532 181.709 90.335C181.467 90.2347 181.199 90.1458 180.902 90.0684C180.611 89.9863 180.301 89.918 179.973 89.8633C179.645 89.8086 179.305 89.7676 178.954 89.7402C178.608 89.7083 178.264 89.6924 177.922 89.6924C177.448 89.6924 176.994 89.7197 176.562 89.7744C176.129 89.8291 175.746 89.9225 175.413 90.0547C175.085 90.1823 174.823 90.3555 174.627 90.5742C174.431 90.7884 174.333 91.0596 174.333 91.3877C174.333 91.6383 174.41 91.8434 174.565 92.0029C174.725 92.1579 174.939 92.2832 175.208 92.3789C175.477 92.4746 175.791 92.5475 176.151 92.5977C176.511 92.6432 176.892 92.6797 177.293 92.707C177.699 92.7344 178.116 92.7594 178.544 92.7822C178.972 92.8005 179.387 92.8346 179.788 92.8848C180.194 92.9303 180.576 92.9964 180.937 93.083C181.297 93.165 181.611 93.2812 181.88 93.4316C182.149 93.582 182.361 93.7757 182.516 94.0127C182.675 94.2451 182.755 94.5322 182.755 94.874ZM192.435 89.6377C192.435 89.7288 192.403 89.7858 192.339 89.8086C192.275 89.8268 192.193 89.8359 192.093 89.8359H188.271V96.4941C188.271 96.5625 188.269 96.6263 188.265 96.6855C188.26 96.7448 188.246 96.7995 188.224 96.8496C188.205 96.8952 188.178 96.9316 188.142 96.959C188.105 96.9863 188.053 97 187.984 97C187.866 97 187.786 96.9499 187.745 96.8496C187.709 96.7448 187.69 96.6263 187.69 96.4941V89.8359H183.862C183.762 89.8359 183.675 89.8268 183.603 89.8086C183.534 89.7858 183.5 89.7288 183.5 89.6377C183.5 89.5693 183.516 89.5192 183.548 89.4873C183.58 89.4508 183.618 89.4258 183.664 89.4121C183.714 89.3984 183.769 89.3916 183.828 89.3916C183.892 89.387 183.951 89.3848 184.006 89.3848H191.942C192.011 89.3848 192.075 89.387 192.134 89.3916C192.193 89.3916 192.243 89.3984 192.284 89.4121C192.33 89.4258 192.366 89.4508 192.394 89.4873C192.421 89.5192 192.435 89.5693 192.435 89.6377ZM195.025 89.7334C195.098 89.6012 195.155 89.5101 195.196 89.46C195.237 89.4098 195.299 89.3848 195.381 89.3848C195.445 89.3848 195.499 89.4098 195.545 89.46C195.595 89.5055 195.659 89.5967 195.736 89.7334L199.51 96.542C199.56 96.6331 199.585 96.722 199.585 96.8086C199.585 96.8906 199.562 96.9544 199.517 97C199.471 97.0456 199.416 97.0684 199.353 97.0684C199.289 97.0684 199.225 97.0456 199.161 97C199.102 96.959 199.04 96.8815 198.977 96.7676L197.814 94.6621H192.947L191.771 96.7949C191.721 96.8906 191.662 96.959 191.594 97C191.53 97.0456 191.466 97.0684 191.402 97.0684C191.325 97.0684 191.268 97.041 191.231 96.9863C191.195 96.9316 191.177 96.8587 191.177 96.7676C191.177 96.7311 191.184 96.6947 191.197 96.6582C191.215 96.6217 191.236 96.5807 191.259 96.5352L195.025 89.7334ZM197.616 94.2588L195.381 90.1777L193.146 94.2588H197.616ZM207.296 89.6377C207.296 89.7288 207.264 89.7858 207.2 89.8086C207.136 89.8268 207.054 89.8359 206.954 89.8359H203.133V96.4941C203.133 96.5625 203.131 96.6263 203.126 96.6855C203.121 96.7448 203.108 96.7995 203.085 96.8496C203.067 96.8952 203.039 96.9316 203.003 96.959C202.966 96.9863 202.914 97 202.846 97C202.727 97 202.647 96.9499 202.606 96.8496C202.57 96.7448 202.552 96.6263 202.552 96.4941V89.8359H198.724C198.623 89.8359 198.537 89.8268 198.464 89.8086C198.396 89.7858 198.361 89.7288 198.361 89.6377C198.361 89.5693 198.377 89.5192 198.409 89.4873C198.441 89.4508 198.48 89.4258 198.525 89.4121C198.576 89.3984 198.63 89.3916 198.689 89.3916C198.753 89.387 198.812 89.3848 198.867 89.3848H206.804C206.872 89.3848 206.936 89.387 206.995 89.3916C207.054 89.3916 207.104 89.3984 207.146 89.4121C207.191 89.4258 207.228 89.4508 207.255 89.4873C207.282 89.5192 207.296 89.5693 207.296 89.6377ZM215.54 96.7607C215.54 96.8291 215.529 96.8792 215.506 96.9111C215.483 96.943 215.451 96.9658 215.41 96.9795C215.374 96.9932 215.328 97 215.273 97C215.219 97 215.157 97 215.089 97H208.704C208.659 97 208.624 96.9977 208.602 96.9932C208.579 96.9886 208.561 96.9772 208.547 96.959C208.538 96.9408 208.531 96.918 208.526 96.8906C208.526 96.8587 208.526 96.8154 208.526 96.7607V89.7061C208.526 89.6377 208.526 89.583 208.526 89.542C208.531 89.501 208.54 89.4691 208.554 89.4463C208.567 89.4235 208.59 89.4076 208.622 89.3984C208.659 89.3893 208.711 89.3848 208.779 89.3848H215.021C215.089 89.3848 215.153 89.3848 215.212 89.3848C215.271 89.3848 215.324 89.3916 215.369 89.4053C215.419 89.4189 215.458 89.4417 215.485 89.4736C215.513 89.5055 215.526 89.5557 215.526 89.624C215.526 89.6787 215.513 89.722 215.485 89.7539C215.458 89.7812 215.419 89.8018 215.369 89.8154C215.324 89.8291 215.271 89.8359 215.212 89.8359C215.153 89.8359 215.089 89.8359 215.021 89.8359H209.107V92.8301H214.986C215.087 92.8301 215.171 92.8438 215.239 92.8711C215.308 92.8984 215.342 92.9577 215.342 93.0488C215.342 93.1491 215.312 93.2152 215.253 93.2471C215.198 93.279 215.125 93.2949 215.034 93.2949H209.107V96.5488H215.034C215.103 96.5488 215.166 96.5488 215.226 96.5488C215.285 96.5488 215.337 96.5557 215.383 96.5693C215.433 96.583 215.472 96.6058 215.499 96.6377C215.526 96.665 215.54 96.7061 215.54 96.7607ZM222.369 96.0498L226.607 89.6787C226.676 89.5739 226.744 89.4987 226.812 89.4531C226.885 89.4076 226.956 89.3848 227.024 89.3848C227.111 89.3848 227.182 89.4212 227.236 89.4941C227.296 89.5625 227.325 89.6491 227.325 89.7539V96.5215C227.325 96.6536 227.309 96.7676 227.277 96.8633C227.245 96.9544 227.163 97 227.031 97C226.917 97 226.84 96.9544 226.799 96.8633C226.762 96.7676 226.744 96.6536 226.744 96.5215V90.4512L222.704 96.4121C222.595 96.5671 222.483 96.6445 222.369 96.6445C222.246 96.6445 222.134 96.5671 222.034 96.4121L217.994 90.4512V96.5215C217.994 96.6536 217.974 96.7676 217.933 96.8633C217.896 96.9544 217.821 97 217.707 97C217.575 97 217.493 96.9544 217.461 96.8633C217.429 96.7676 217.413 96.6536 217.413 96.5215V89.7539C217.413 89.6491 217.44 89.5625 217.495 89.4941C217.554 89.4212 217.627 89.3848 217.714 89.3848C217.778 89.3848 217.844 89.4076 217.912 89.4531C217.985 89.4987 218.058 89.5739 218.131 89.6787L222.369 96.0498ZM236.526 96.7607C236.526 96.8291 236.515 96.8792 236.492 96.9111C236.469 96.943 236.438 96.9658 236.396 96.9795C236.36 96.9932 236.314 97 236.26 97C236.205 97 236.144 97 236.075 97H229.69C229.645 97 229.611 96.9977 229.588 96.9932C229.565 96.9886 229.547 96.9772 229.533 96.959C229.524 96.9408 229.517 96.918 229.513 96.8906C229.513 96.8587 229.513 96.8154 229.513 96.7607V89.7061C229.513 89.6377 229.513 89.583 229.513 89.542C229.517 89.501 229.526 89.4691 229.54 89.4463C229.554 89.4235 229.576 89.4076 229.608 89.3984C229.645 89.3893 229.697 89.3848 229.766 89.3848H236.007C236.075 89.3848 236.139 89.3848 236.198 89.3848C236.257 89.3848 236.31 89.3916 236.355 89.4053C236.406 89.4189 236.444 89.4417 236.472 89.4736C236.499 89.5055 236.513 89.5557 236.513 89.624C236.513 89.6787 236.499 89.722 236.472 89.7539C236.444 89.7812 236.406 89.8018 236.355 89.8154C236.31 89.8291 236.257 89.8359 236.198 89.8359C236.139 89.8359 236.075 89.8359 236.007 89.8359H230.094V92.8301H235.973C236.073 92.8301 236.157 92.8438 236.226 92.8711C236.294 92.8984 236.328 92.9577 236.328 93.0488C236.328 93.1491 236.299 93.2152 236.239 93.2471C236.185 93.279 236.112 93.2949 236.021 93.2949H230.094V96.5488H236.021C236.089 96.5488 236.153 96.5488 236.212 96.5488C236.271 96.5488 236.324 96.5557 236.369 96.5693C236.419 96.583 236.458 96.6058 236.485 96.6377C236.513 96.665 236.526 96.7061 236.526 96.7607ZM246.076 96.125V89.9043C246.076 89.8359 246.078 89.7721 246.083 89.7129C246.088 89.6491 246.099 89.5944 246.117 89.5488C246.14 89.4987 246.17 89.46 246.206 89.4326C246.247 89.4007 246.302 89.3848 246.37 89.3848C246.489 89.3848 246.566 89.4372 246.603 89.542C246.639 89.6423 246.657 89.763 246.657 89.9043V96.5625C246.657 96.8542 246.58 97 246.425 97C246.32 97 246.19 96.9294 246.035 96.7881L238.987 90.2598V96.5215C238.987 96.6536 238.967 96.7676 238.926 96.8633C238.889 96.9544 238.816 97 238.707 97C238.575 97 238.491 96.9544 238.454 96.8633C238.422 96.7676 238.406 96.6536 238.406 96.5215V89.8291C238.406 89.6924 238.431 89.5876 238.481 89.5146C238.532 89.4417 238.6 89.4053 238.687 89.4053C238.8 89.4053 238.933 89.4736 239.083 89.6104L246.076 96.125ZM256.815 89.6377C256.815 89.7288 256.784 89.7858 256.72 89.8086C256.656 89.8268 256.574 89.8359 256.474 89.8359H252.652V96.4941C252.652 96.5625 252.65 96.6263 252.646 96.6855C252.641 96.7448 252.627 96.7995 252.604 96.8496C252.586 96.8952 252.559 96.9316 252.522 96.959C252.486 96.9863 252.434 97 252.365 97C252.247 97 252.167 96.9499 252.126 96.8496C252.09 96.7448 252.071 96.6263 252.071 96.4941V89.8359H248.243C248.143 89.8359 248.056 89.8268 247.983 89.8086C247.915 89.7858 247.881 89.7288 247.881 89.6377C247.881 89.5693 247.897 89.5192 247.929 89.4873C247.961 89.4508 247.999 89.4258 248.045 89.4121C248.095 89.3984 248.15 89.3916 248.209 89.3916C248.273 89.387 248.332 89.3848 248.387 89.3848H256.323C256.392 89.3848 256.455 89.387 256.515 89.3916C256.574 89.3916 256.624 89.3984 256.665 89.4121C256.711 89.4258 256.747 89.4508 256.774 89.4873C256.802 89.5192 256.815 89.5693 256.815 89.6377ZM278.581 89.6377C278.581 89.7288 278.549 89.7858 278.485 89.8086C278.422 89.8268 278.34 89.8359 278.239 89.8359H274.418V96.4941C274.418 96.5625 274.416 96.6263 274.411 96.6855C274.407 96.7448 274.393 96.7995 274.37 96.8496C274.352 96.8952 274.325 96.9316 274.288 96.959C274.252 96.9863 274.199 97 274.131 97C274.012 97 273.933 96.9499 273.892 96.8496C273.855 96.7448 273.837 96.6263 273.837 96.4941V89.8359H270.009C269.909 89.8359 269.822 89.8268 269.749 89.8086C269.681 89.7858 269.646 89.7288 269.646 89.6377C269.646 89.5693 269.662 89.5192 269.694 89.4873C269.726 89.4508 269.765 89.4258 269.811 89.4121C269.861 89.3984 269.915 89.3916 269.975 89.3916C270.038 89.387 270.098 89.3848 270.152 89.3848H278.089C278.157 89.3848 278.221 89.387 278.28 89.3916C278.34 89.3916 278.39 89.3984 278.431 89.4121C278.476 89.4258 278.513 89.4508 278.54 89.4873C278.567 89.5192 278.581 89.5693 278.581 89.6377ZM279.798 89.8633C279.798 89.804 279.8 89.7471 279.805 89.6924C279.814 89.6331 279.83 89.5807 279.853 89.5352C279.88 89.4896 279.914 89.4531 279.955 89.4258C280.001 89.3984 280.058 89.3848 280.126 89.3848C280.176 89.3848 280.217 89.4007 280.249 89.4326C280.281 89.46 280.306 89.4964 280.324 89.542C280.347 89.5876 280.361 89.64 280.365 89.6992C280.374 89.7539 280.379 89.8086 280.379 89.8633V92.8574H286.429V89.8633C286.429 89.804 286.431 89.7471 286.436 89.6924C286.44 89.6331 286.451 89.5807 286.47 89.5352C286.493 89.4896 286.522 89.4531 286.559 89.4258C286.595 89.3984 286.647 89.3848 286.716 89.3848C286.784 89.3848 286.837 89.3984 286.873 89.4258C286.914 89.4531 286.944 89.4896 286.962 89.5352C286.985 89.5807 286.998 89.6331 287.003 89.6924C287.007 89.7471 287.01 89.804 287.01 89.8633V96.5215C287.01 96.5807 287.007 96.64 287.003 96.6992C286.998 96.7539 286.985 96.804 286.962 96.8496C286.944 96.8952 286.916 96.9316 286.88 96.959C286.843 96.9863 286.791 97 286.723 97C286.654 97 286.6 96.9863 286.559 96.959C286.522 96.9316 286.493 96.8952 286.47 96.8496C286.451 96.804 286.44 96.7539 286.436 96.6992C286.431 96.64 286.429 96.5807 286.429 96.5215V93.2812H280.379V96.5215C280.379 96.5762 280.374 96.6331 280.365 96.6924C280.356 96.7471 280.34 96.7972 280.317 96.8428C280.299 96.8883 280.272 96.9271 280.235 96.959C280.203 96.9863 280.162 97 280.112 97C280.044 97 279.987 96.9863 279.941 96.959C279.9 96.9316 279.868 96.8952 279.846 96.8496C279.827 96.804 279.814 96.7539 279.805 96.6992C279.8 96.64 279.798 96.5807 279.798 96.5215V89.8633ZM295.903 91.75C295.903 92.028 295.862 92.2718 295.78 92.4814C295.698 92.6911 295.587 92.8734 295.445 93.0283C295.309 93.1833 295.145 93.3132 294.953 93.418C294.766 93.5228 294.566 93.6094 294.352 93.6777C294.137 93.7415 293.914 93.7894 293.682 93.8213C293.454 93.8532 293.23 93.8737 293.012 93.8828L295.527 96.5283C295.568 96.5693 295.596 96.6126 295.609 96.6582C295.628 96.6992 295.639 96.738 295.644 96.7744C295.644 96.8382 295.621 96.8929 295.575 96.9385C295.534 96.9795 295.479 97 295.411 97C295.361 97 295.306 96.9886 295.247 96.9658C295.192 96.943 295.138 96.8997 295.083 96.8359L292.342 93.9102H289.785V96.4805C289.785 96.5488 289.781 96.6149 289.771 96.6787C289.767 96.738 289.756 96.7926 289.737 96.8428C289.719 96.8883 289.692 96.9271 289.655 96.959C289.623 96.9863 289.58 97 289.525 97C289.393 97 289.307 96.9499 289.266 96.8496C289.225 96.7448 289.204 96.6217 289.204 96.4805V89.6377C289.204 89.5693 289.204 89.5192 289.204 89.4873C289.209 89.4508 289.218 89.4258 289.231 89.4121C289.245 89.3984 289.268 89.3916 289.3 89.3916C289.336 89.387 289.389 89.3848 289.457 89.3848H291.439C291.863 89.3848 292.267 89.3893 292.649 89.3984C293.037 89.4076 293.395 89.4372 293.723 89.4873C294.055 89.5329 294.356 89.6058 294.625 89.7061C294.894 89.8018 295.122 89.9385 295.309 90.1162C295.5 90.2894 295.646 90.5081 295.746 90.7725C295.851 91.0368 295.903 91.3626 295.903 91.75ZM295.322 91.75C295.322 91.2988 295.238 90.9456 295.069 90.6904C294.905 90.4307 294.659 90.2393 294.331 90.1162C294.003 89.9886 293.597 89.9111 293.114 89.8838C292.631 89.8519 292.073 89.8359 291.439 89.8359H289.785V93.459H292.349C292.745 93.459 293.123 93.4408 293.483 93.4043C293.843 93.3678 294.158 93.2904 294.427 93.1719C294.7 93.0488 294.917 92.8757 295.076 92.6523C295.24 92.429 295.322 92.1283 295.322 91.75ZM307.408 93.1924C307.408 93.8577 307.308 94.4388 307.107 94.9355C306.911 95.4277 306.606 95.8379 306.191 96.166C305.781 96.4941 305.259 96.7402 304.626 96.9043C303.997 97.0638 303.25 97.1436 302.384 97.1436C301.518 97.1436 300.768 97.0638 300.135 96.9043C299.506 96.7402 298.986 96.4941 298.576 96.166C298.166 95.8379 297.861 95.4277 297.66 94.9355C297.464 94.4388 297.366 93.8577 297.366 93.1924C297.366 92.527 297.464 91.9482 297.66 91.4561C297.861 90.9593 298.166 90.5469 298.576 90.2188C298.986 89.8906 299.506 89.6468 300.135 89.4873C300.768 89.3232 301.518 89.2412 302.384 89.2412C303.25 89.2412 303.997 89.3232 304.626 89.4873C305.259 89.6468 305.781 89.8906 306.191 90.2188C306.606 90.5469 306.911 90.9593 307.107 91.4561C307.308 91.9482 307.408 92.527 307.408 93.1924ZM297.947 93.1924C297.947 93.8304 298.038 94.3704 298.221 94.8125C298.403 95.2546 298.676 95.6169 299.041 95.8994C299.41 96.1774 299.873 96.3802 300.429 96.5078C300.985 96.6309 301.636 96.6924 302.384 96.6924C303.131 96.6924 303.783 96.6309 304.339 96.5078C304.895 96.3802 305.357 96.1774 305.727 95.8994C306.096 95.6169 306.371 95.2546 306.554 94.8125C306.736 94.3704 306.827 93.8304 306.827 93.1924C306.827 92.5589 306.736 92.0212 306.554 91.5791C306.371 91.1325 306.096 90.7702 305.727 90.4922C305.357 90.2096 304.895 90.0068 304.339 89.8838C303.783 89.7562 303.131 89.6924 302.384 89.6924C301.636 89.6924 300.985 89.7562 300.429 89.8838C299.873 90.0068 299.41 90.2096 299.041 90.4922C298.676 90.7702 298.403 91.1325 298.221 91.5791C298.038 92.0212 297.947 92.5589 297.947 93.1924ZM313.684 96.6924C314.426 96.6924 315.046 96.6217 315.543 96.4805C316.04 96.3346 316.436 96.1159 316.732 95.8242C317.033 95.5326 317.245 95.168 317.368 94.7305C317.491 94.2884 317.553 93.7689 317.553 93.1719V89.8633C317.553 89.7448 317.571 89.6354 317.607 89.5352C317.644 89.4349 317.719 89.3848 317.833 89.3848C317.901 89.3848 317.954 89.3984 317.99 89.4258C318.031 89.4531 318.061 89.4896 318.079 89.5352C318.102 89.5807 318.116 89.6331 318.12 89.6924C318.129 89.7471 318.134 89.804 318.134 89.8633V93.1719C318.134 93.8828 318.04 94.4912 317.854 94.9971C317.671 95.4984 317.396 95.9085 317.026 96.2275C316.657 96.5465 316.192 96.779 315.632 96.9248C315.076 97.0706 314.426 97.1436 313.684 97.1436C312.936 97.1436 312.285 97.0706 311.729 96.9248C311.173 96.779 310.708 96.5465 310.334 96.2275C309.96 95.9085 309.68 95.4984 309.493 94.9971C309.311 94.4912 309.22 93.8828 309.22 93.1719V89.8633C309.22 89.804 309.222 89.7471 309.227 89.6924C309.236 89.6331 309.252 89.5807 309.274 89.5352C309.297 89.4896 309.327 89.4531 309.363 89.4258C309.404 89.3984 309.459 89.3848 309.527 89.3848C309.641 89.3848 309.714 89.4349 309.746 89.5352C309.783 89.6354 309.801 89.7448 309.801 89.8633V93.1719C309.801 93.7689 309.862 94.2884 309.985 94.7305C310.113 95.168 310.325 95.5326 310.621 95.8242C310.922 96.1159 311.321 96.3346 311.817 96.4805C312.314 96.6217 312.936 96.6924 313.684 96.6924ZM325.065 96.6924C325.754 96.6924 326.41 96.6468 327.034 96.5557C327.659 96.4645 328.287 96.3438 328.921 96.1934V93.3359H325.435C325.38 93.3359 325.323 93.3359 325.264 93.3359C325.209 93.3314 325.157 93.3223 325.106 93.3086C325.061 93.2904 325.022 93.2653 324.99 93.2334C324.963 93.2015 324.949 93.1559 324.949 93.0967C324.949 93.0374 324.963 92.9919 324.99 92.96C325.022 92.9281 325.061 92.9053 325.106 92.8916C325.152 92.8734 325.202 92.8643 325.257 92.8643C325.316 92.8597 325.375 92.8574 325.435 92.8574H328.921C329.112 92.8574 329.242 92.8939 329.311 92.9668C329.379 93.0397 329.413 93.1628 329.413 93.3359V96.1934C329.413 96.3346 329.361 96.444 329.256 96.5215C329.151 96.5944 329.039 96.6423 328.921 96.665C328.246 96.7972 327.592 96.9089 326.959 97C326.326 97.0957 325.694 97.1436 325.065 97.1436C324.218 97.1436 323.473 97.0706 322.83 96.9248C322.192 96.779 321.659 96.5488 321.23 96.2344C320.802 95.9154 320.479 95.5075 320.26 95.0107C320.046 94.5094 319.938 93.9033 319.938 93.1924C319.938 92.4814 320.046 91.8776 320.26 91.3809C320.479 90.8796 320.802 90.4717 321.23 90.1572C321.659 89.8382 322.192 89.6058 322.83 89.46C323.473 89.3141 324.218 89.2412 325.065 89.2412C325.658 89.2412 326.232 89.2959 326.788 89.4053C327.344 89.5101 327.909 89.681 328.483 89.918C328.556 89.9499 328.609 89.9909 328.641 90.041C328.673 90.0866 328.688 90.1322 328.688 90.1777C328.688 90.2324 328.668 90.2803 328.627 90.3213C328.586 90.3623 328.534 90.3828 328.47 90.3828C328.451 90.3828 328.408 90.3714 328.34 90.3486C327.816 90.1299 327.273 89.9658 326.713 89.8564C326.152 89.7471 325.603 89.6924 325.065 89.6924C324.254 89.6924 323.562 89.7607 322.987 89.8975C322.413 90.0296 321.941 90.2393 321.572 90.5264C321.208 90.8089 320.941 91.1712 320.772 91.6133C320.604 92.0508 320.52 92.5771 320.52 93.1924C320.52 93.8076 320.604 94.3363 320.772 94.7783C320.941 95.2158 321.208 95.5781 321.572 95.8652C321.941 96.1478 322.413 96.3574 322.987 96.4941C323.562 96.6263 324.254 96.6924 325.065 96.6924ZM331.286 89.8633C331.286 89.804 331.288 89.7471 331.293 89.6924C331.302 89.6331 331.318 89.5807 331.341 89.5352C331.368 89.4896 331.402 89.4531 331.443 89.4258C331.489 89.3984 331.546 89.3848 331.614 89.3848C331.664 89.3848 331.705 89.4007 331.737 89.4326C331.769 89.46 331.794 89.4964 331.812 89.542C331.835 89.5876 331.849 89.64 331.854 89.6992C331.863 89.7539 331.867 89.8086 331.867 89.8633V92.8574H337.917V89.8633C337.917 89.804 337.919 89.7471 337.924 89.6924C337.928 89.6331 337.94 89.5807 337.958 89.5352C337.981 89.4896 338.01 89.4531 338.047 89.4258C338.083 89.3984 338.136 89.3848 338.204 89.3848C338.272 89.3848 338.325 89.3984 338.361 89.4258C338.402 89.4531 338.432 89.4896 338.45 89.5352C338.473 89.5807 338.487 89.6331 338.491 89.6924C338.496 89.7471 338.498 89.804 338.498 89.8633V96.5215C338.498 96.5807 338.496 96.64 338.491 96.6992C338.487 96.7539 338.473 96.804 338.45 96.8496C338.432 96.8952 338.405 96.9316 338.368 96.959C338.332 96.9863 338.279 97 338.211 97C338.143 97 338.088 96.9863 338.047 96.959C338.01 96.9316 337.981 96.8952 337.958 96.8496C337.94 96.804 337.928 96.7539 337.924 96.6992C337.919 96.64 337.917 96.5807 337.917 96.5215V93.2812H331.867V96.5215C331.867 96.5762 331.863 96.6331 331.854 96.6924C331.844 96.7471 331.828 96.7972 331.806 96.8428C331.787 96.8883 331.76 96.9271 331.724 96.959C331.692 96.9863 331.651 97 331.601 97C331.532 97 331.475 96.9863 331.43 96.959C331.389 96.9316 331.357 96.8952 331.334 96.8496C331.316 96.804 331.302 96.7539 331.293 96.6992C331.288 96.64 331.286 96.5807 331.286 96.5215V89.8633ZM358.138 96.6924C358.826 96.6924 359.482 96.6468 360.106 96.5557C360.731 96.4645 361.36 96.3438 361.993 96.1934V93.3359H358.507C358.452 93.3359 358.395 93.3359 358.336 93.3359C358.281 93.3314 358.229 93.3223 358.179 93.3086C358.133 93.2904 358.094 93.2653 358.062 93.2334C358.035 93.2015 358.021 93.1559 358.021 93.0967C358.021 93.0374 358.035 92.9919 358.062 92.96C358.094 92.9281 358.133 92.9053 358.179 92.8916C358.224 92.8734 358.274 92.8643 358.329 92.8643C358.388 92.8597 358.448 92.8574 358.507 92.8574H361.993C362.185 92.8574 362.314 92.8939 362.383 92.9668C362.451 93.0397 362.485 93.1628 362.485 93.3359V96.1934C362.485 96.3346 362.433 96.444 362.328 96.5215C362.223 96.5944 362.112 96.6423 361.993 96.665C361.319 96.7972 360.665 96.9089 360.031 97C359.398 97.0957 358.767 97.1436 358.138 97.1436C357.29 97.1436 356.545 97.0706 355.902 96.9248C355.264 96.779 354.731 96.5488 354.303 96.2344C353.874 95.9154 353.551 95.5075 353.332 95.0107C353.118 94.5094 353.011 93.9033 353.011 93.1924C353.011 92.4814 353.118 91.8776 353.332 91.3809C353.551 90.8796 353.874 90.4717 354.303 90.1572C354.731 89.8382 355.264 89.6058 355.902 89.46C356.545 89.3141 357.29 89.2412 358.138 89.2412C358.73 89.2412 359.304 89.2959 359.86 89.4053C360.416 89.5101 360.981 89.681 361.556 89.918C361.629 89.9499 361.681 89.9909 361.713 90.041C361.745 90.0866 361.761 90.1322 361.761 90.1777C361.761 90.2324 361.74 90.2803 361.699 90.3213C361.658 90.3623 361.606 90.3828 361.542 90.3828C361.524 90.3828 361.48 90.3714 361.412 90.3486C360.888 90.1299 360.346 89.9658 359.785 89.8564C359.225 89.7471 358.675 89.6924 358.138 89.6924C357.326 89.6924 356.634 89.7607 356.06 89.8975C355.485 90.0296 355.014 90.2393 354.645 90.5264C354.28 90.8089 354.013 91.1712 353.845 91.6133C353.676 92.0508 353.592 92.5771 353.592 93.1924C353.592 93.8076 353.676 94.3363 353.845 94.7783C354.013 95.2158 354.28 95.5781 354.645 95.8652C355.014 96.1478 355.485 96.3574 356.06 96.4941C356.634 96.6263 357.326 96.6924 358.138 96.6924ZM367.523 89.7334C367.596 89.6012 367.653 89.5101 367.694 89.46C367.735 89.4098 367.797 89.3848 367.879 89.3848C367.943 89.3848 367.997 89.4098 368.043 89.46C368.093 89.5055 368.157 89.5967 368.234 89.7334L372.008 96.542C372.058 96.6331 372.083 96.722 372.083 96.8086C372.083 96.8906 372.06 96.9544 372.015 97C371.969 97.0456 371.914 97.0684 371.851 97.0684C371.787 97.0684 371.723 97.0456 371.659 97C371.6 96.959 371.538 96.8815 371.475 96.7676L370.312 94.6621H365.445L364.27 96.7949C364.219 96.8906 364.16 96.959 364.092 97C364.028 97.0456 363.964 97.0684 363.9 97.0684C363.823 97.0684 363.766 97.041 363.729 96.9863C363.693 96.9316 363.675 96.8587 363.675 96.7676C363.675 96.7311 363.682 96.6947 363.695 96.6582C363.714 96.6217 363.734 96.5807 363.757 96.5352L367.523 89.7334ZM370.114 94.2588L367.879 90.1777L365.644 94.2588H370.114ZM380.3 91.75C380.3 92.028 380.259 92.2718 380.177 92.4814C380.095 92.6911 379.983 92.8734 379.842 93.0283C379.705 93.1833 379.541 93.3132 379.35 93.418C379.163 93.5228 378.962 93.6094 378.748 93.6777C378.534 93.7415 378.311 93.7894 378.078 93.8213C377.85 93.8532 377.627 93.8737 377.408 93.8828L379.924 96.5283C379.965 96.5693 379.992 96.6126 380.006 96.6582C380.024 96.6992 380.035 96.738 380.04 96.7744C380.04 96.8382 380.017 96.8929 379.972 96.9385C379.931 96.9795 379.876 97 379.808 97C379.757 97 379.703 96.9886 379.644 96.9658C379.589 96.943 379.534 96.8997 379.479 96.8359L376.738 93.9102H374.182V96.4805C374.182 96.5488 374.177 96.6149 374.168 96.6787C374.163 96.738 374.152 96.7926 374.134 96.8428C374.116 96.8883 374.088 96.9271 374.052 96.959C374.02 96.9863 373.977 97 373.922 97C373.79 97 373.703 96.9499 373.662 96.8496C373.621 96.7448 373.601 96.6217 373.601 96.4805V89.6377C373.601 89.5693 373.601 89.5192 373.601 89.4873C373.605 89.4508 373.614 89.4258 373.628 89.4121C373.642 89.3984 373.664 89.3916 373.696 89.3916C373.733 89.387 373.785 89.3848 373.854 89.3848H375.836C376.26 89.3848 376.663 89.3893 377.046 89.3984C377.433 89.4076 377.791 89.4372 378.119 89.4873C378.452 89.5329 378.753 89.6058 379.021 89.7061C379.29 89.8018 379.518 89.9385 379.705 90.1162C379.896 90.2894 380.042 90.5081 380.143 90.7725C380.247 91.0368 380.3 91.3626 380.3 91.75ZM379.719 91.75C379.719 91.2988 379.634 90.9456 379.466 90.6904C379.302 90.4307 379.056 90.2393 378.728 90.1162C378.399 89.9886 377.994 89.9111 377.511 89.8838C377.028 89.8519 376.469 89.8359 375.836 89.8359H374.182V93.459H376.745C377.142 93.459 377.52 93.4408 377.88 93.4043C378.24 93.3678 378.554 93.2904 378.823 93.1719C379.097 93.0488 379.313 92.8757 379.473 92.6523C379.637 92.429 379.719 92.1283 379.719 91.75ZM387.129 96.0498L391.367 89.6787C391.436 89.5739 391.504 89.4987 391.572 89.4531C391.645 89.4076 391.716 89.3848 391.784 89.3848C391.871 89.3848 391.941 89.4212 391.996 89.4941C392.055 89.5625 392.085 89.6491 392.085 89.7539V96.5215C392.085 96.6536 392.069 96.7676 392.037 96.8633C392.005 96.9544 391.923 97 391.791 97C391.677 97 391.6 96.9544 391.559 96.8633C391.522 96.7676 391.504 96.6536 391.504 96.5215V90.4512L387.464 96.4121C387.354 96.5671 387.243 96.6445 387.129 96.6445C387.006 96.6445 386.894 96.5671 386.794 96.4121L382.754 90.4512V96.5215C382.754 96.6536 382.733 96.7676 382.692 96.8633C382.656 96.9544 382.581 97 382.467 97C382.335 97 382.253 96.9544 382.221 96.8633C382.189 96.7676 382.173 96.6536 382.173 96.5215V89.7539C382.173 89.6491 382.2 89.5625 382.255 89.4941C382.314 89.4212 382.387 89.3848 382.474 89.3848C382.537 89.3848 382.604 89.4076 382.672 89.4531C382.745 89.4987 382.818 89.5739 382.891 89.6787L387.129 96.0498ZM401.286 96.7607C401.286 96.8291 401.275 96.8792 401.252 96.9111C401.229 96.943 401.197 96.9658 401.156 96.9795C401.12 96.9932 401.074 97 401.02 97C400.965 97 400.903 97 400.835 97H394.45C394.405 97 394.37 96.9977 394.348 96.9932C394.325 96.9886 394.307 96.9772 394.293 96.959C394.284 96.9408 394.277 96.918 394.272 96.8906C394.272 96.8587 394.272 96.8154 394.272 96.7607V89.7061C394.272 89.6377 394.272 89.583 394.272 89.542C394.277 89.501 394.286 89.4691 394.3 89.4463C394.313 89.4235 394.336 89.4076 394.368 89.3984C394.405 89.3893 394.457 89.3848 394.525 89.3848H400.767C400.835 89.3848 400.899 89.3848 400.958 89.3848C401.017 89.3848 401.07 89.3916 401.115 89.4053C401.165 89.4189 401.204 89.4417 401.231 89.4736C401.259 89.5055 401.272 89.5557 401.272 89.624C401.272 89.6787 401.259 89.722 401.231 89.7539C401.204 89.7812 401.165 89.8018 401.115 89.8154C401.07 89.8291 401.017 89.8359 400.958 89.8359C400.899 89.8359 400.835 89.8359 400.767 89.8359H394.854V92.8301H400.732C400.833 92.8301 400.917 92.8438 400.985 92.8711C401.054 92.8984 401.088 92.9577 401.088 93.0488C401.088 93.1491 401.058 93.2152 400.999 93.2471C400.944 93.279 400.871 93.2949 400.78 93.2949H394.854V96.5488H400.78C400.849 96.5488 400.912 96.5488 400.972 96.5488C401.031 96.5488 401.083 96.5557 401.129 96.5693C401.179 96.583 401.218 96.6058 401.245 96.6377C401.272 96.665 401.286 96.7061 401.286 96.7607ZM410.836 96.125V89.9043C410.836 89.8359 410.838 89.7721 410.843 89.7129C410.847 89.6491 410.859 89.5944 410.877 89.5488C410.9 89.4987 410.929 89.46 410.966 89.4326C411.007 89.4007 411.062 89.3848 411.13 89.3848C411.248 89.3848 411.326 89.4372 411.362 89.542C411.399 89.6423 411.417 89.763 411.417 89.9043V96.5625C411.417 96.8542 411.34 97 411.185 97C411.08 97 410.95 96.9294 410.795 96.7881L403.747 90.2598V96.5215C403.747 96.6536 403.727 96.7676 403.686 96.8633C403.649 96.9544 403.576 97 403.467 97C403.335 97 403.25 96.9544 403.214 96.8633C403.182 96.7676 403.166 96.6536 403.166 96.5215V89.8291C403.166 89.6924 403.191 89.5876 403.241 89.5146C403.291 89.4417 403.36 89.4053 403.446 89.4053C403.56 89.4053 403.692 89.4736 403.843 89.6104L410.836 96.125ZM421.575 89.6377C421.575 89.7288 421.543 89.7858 421.479 89.8086C421.416 89.8268 421.334 89.8359 421.233 89.8359H417.412V96.4941C417.412 96.5625 417.41 96.6263 417.405 96.6855C417.401 96.7448 417.387 96.7995 417.364 96.8496C417.346 96.8952 417.319 96.9316 417.282 96.959C417.246 96.9863 417.193 97 417.125 97C417.007 97 416.927 96.9499 416.886 96.8496C416.849 96.7448 416.831 96.6263 416.831 96.4941V89.8359H413.003C412.903 89.8359 412.816 89.8268 412.743 89.8086C412.675 89.7858 412.641 89.7288 412.641 89.6377C412.641 89.5693 412.657 89.5192 412.688 89.4873C412.72 89.4508 412.759 89.4258 412.805 89.4121C412.855 89.3984 412.91 89.3916 412.969 89.3916C413.033 89.387 413.092 89.3848 413.146 89.3848H421.083C421.151 89.3848 421.215 89.387 421.274 89.3916C421.334 89.3916 421.384 89.3984 421.425 89.4121C421.47 89.4258 421.507 89.4508 421.534 89.4873C421.562 89.5192 421.575 89.5693 421.575 89.6377ZM431.46 94.874C431.46 95.1657 431.408 95.4255 431.303 95.6533C431.198 95.8766 431.052 96.0726 430.865 96.2412C430.678 96.4053 430.455 96.5465 430.195 96.665C429.94 96.779 429.662 96.8724 429.361 96.9453C429.061 97.0137 428.739 97.0615 428.397 97.0889C428.06 97.1208 427.718 97.1367 427.372 97.1367C426.884 97.1367 426.399 97.1117 425.916 97.0615C425.433 97.0114 424.982 96.9499 424.562 96.877C424.143 96.7995 423.772 96.7174 423.448 96.6309C423.129 96.5443 422.888 96.4622 422.724 96.3848C422.66 96.3529 422.612 96.3141 422.58 96.2686C422.553 96.2184 422.539 96.1683 422.539 96.1182C422.539 96.0635 422.553 96.0179 422.58 95.9814C422.612 95.9404 422.658 95.9199 422.717 95.9199C422.744 95.9199 422.776 95.9268 422.812 95.9404C422.99 96.0133 423.245 96.0931 423.578 96.1797C423.911 96.2663 424.287 96.3483 424.706 96.4258C425.13 96.4987 425.579 96.5602 426.053 96.6104C426.531 96.6605 427.005 96.6855 427.475 96.6855C427.93 96.6855 428.363 96.6559 428.773 96.5967C429.184 96.5374 429.544 96.4372 429.854 96.2959C430.168 96.1546 430.416 95.9678 430.599 95.7354C430.785 95.5029 430.879 95.2158 430.879 94.874C430.879 94.5869 430.799 94.3522 430.64 94.1699C430.485 93.9831 430.273 93.835 430.004 93.7256C429.735 93.6117 429.421 93.5273 429.061 93.4727C428.701 93.4134 428.318 93.3701 427.912 93.3428C427.511 93.3109 427.096 93.2881 426.668 93.2744C426.24 93.2562 425.823 93.2288 425.417 93.1924C425.016 93.1559 424.635 93.1035 424.275 93.0352C423.915 92.9668 423.601 92.8665 423.332 92.7344C423.063 92.6022 422.849 92.4313 422.689 92.2217C422.535 92.012 422.457 91.7477 422.457 91.4287C422.457 91.137 422.512 90.8796 422.621 90.6562C422.73 90.4329 422.881 90.2415 423.072 90.082C423.264 89.918 423.489 89.7835 423.749 89.6787C424.013 89.5693 424.298 89.4827 424.604 89.4189C424.913 89.3551 425.237 89.3096 425.574 89.2822C425.916 89.2549 426.258 89.2412 426.6 89.2412C427.023 89.2412 427.44 89.2617 427.851 89.3027C428.261 89.3392 428.646 89.3916 429.006 89.46C429.366 89.5238 429.689 89.5967 429.977 89.6787C430.264 89.7562 430.494 89.8359 430.667 89.918C430.703 89.9362 430.731 89.9635 430.749 90C430.767 90.0319 430.776 90.0661 430.776 90.1025C430.776 90.1663 430.754 90.2256 430.708 90.2803C430.667 90.335 430.608 90.3623 430.53 90.3623C430.485 90.3623 430.446 90.3532 430.414 90.335C430.173 90.2347 429.904 90.1458 429.607 90.0684C429.316 89.9863 429.006 89.918 428.678 89.8633C428.35 89.8086 428.01 89.7676 427.659 89.7402C427.313 89.7083 426.969 89.6924 426.627 89.6924C426.153 89.6924 425.7 89.7197 425.267 89.7744C424.834 89.8291 424.451 89.9225 424.118 90.0547C423.79 90.1823 423.528 90.3555 423.332 90.5742C423.136 90.7884 423.038 91.0596 423.038 91.3877C423.038 91.6383 423.116 91.8434 423.271 92.0029C423.43 92.1579 423.644 92.2832 423.913 92.3789C424.182 92.4746 424.496 92.5475 424.856 92.5977C425.216 92.6432 425.597 92.6797 425.998 92.707C426.404 92.7344 426.821 92.7594 427.249 92.7822C427.677 92.8005 428.092 92.8346 428.493 92.8848C428.899 92.9303 429.282 92.9964 429.642 93.083C430.002 93.165 430.316 93.2812 430.585 93.4316C430.854 93.582 431.066 93.7757 431.221 94.0127C431.38 94.2451 431.46 94.5322 431.46 94.874Z" fill="white"/>
</svg>
