<svg width="24" height="24" viewBox="0 0 24 24" fill="none" xmlns="http://www.w3.org/2000/svg">
<path d="M20.4751 7.80467C20.4854 7.98975 20.4854 8.17484 20.4854 8.34967C20.4828 9.48833 20.3166 10.6207 19.9918 11.7121C19.3075 14.2272 17.8048 16.4426 15.7212 18.0087C13.6375 19.5747 11.0916 20.402 8.48539 20.36C6.19114 20.3625 3.94506 19.7019 2.01755 18.4576C2.35185 18.499 2.6884 18.5196 3.02525 18.5193C4.92368 18.5211 6.76741 17.8836 8.25925 16.7095C7.38056 16.693 6.5289 16.4028 5.82296 15.8794C5.11702 15.3559 4.59195 14.6253 4.32093 13.7892C4.58255 13.8341 4.84731 13.8581 5.11273 13.8612C5.49171 13.8626 5.869 13.8107 6.23351 13.707C5.33108 13.5283 4.5123 13.0582 3.90296 12.369C3.29363 11.6798 2.92747 10.8096 2.86075 9.89206C2.84365 9.78671 2.83675 9.67996 2.84016 9.5733V9.52188C3.42619 9.84807 4.0823 10.028 4.75274 10.0463C4.17568 9.66166 3.7028 9.14017 3.37626 8.52835C3.04973 7.91653 2.87969 7.23341 2.88133 6.53991C2.88059 5.79316 3.07558 5.05927 3.44687 4.41137C4.50588 5.71622 5.82784 6.78341 7.32667 7.54346C8.8255 8.3035 10.4676 8.73936 12.1461 8.82266C11.9337 7.91784 12.026 6.96821 12.4088 6.12129C12.7916 5.27436 13.4433 4.57755 14.2628 4.13909C15.0823 3.70063 16.0236 3.54506 16.9406 3.69657C17.8576 3.84807 18.6989 4.29815 19.3338 4.97691C20.2806 4.79005 21.1883 4.44225 22.0175 3.94863C22.0532 4.66452 21.9339 5.37967 21.6677 6.04518C21.4015 6.71069 20.9947 7.31087 20.4751 7.80467Z" fill="#080809"/>
</svg>
